<svg xmlns="http://www.w3.org/2000/svg" id="Layer_2" viewBox="0 0 1133.52 245.15"><defs><style>      .cls-1 {        fill: #323136;      }    </style></defs><g id="Camada_1"><g><path class="cls-1" d="M245.15,122.83c0-16.93-3.44-33.05-9.66-47.71C216.91,31.03,173.27,0,122.52,0,54.96,0,0,54.98,0,122.57s54.96,122.57,122.52,122.57c2.19,0,4.36-.06,6.51-.18,64.66-3.2,116.11-56.66,116.11-122.14ZM239.6,122.83c0,30.83-12.03,58.89-31.62,79.78,3.55-16.27-1.43-32.63-14.3-45.64-18.66-18.88-38.29-39.41-40.68-60.08-4.79-41.44,22.21-58.9,41.62-66.05,27.35,21.39,44.98,54.66,44.98,92Z"></path><g><path class="cls-1" d="M324.98,122.41c0,8.09,1.94,15.54,5.83,22.33,3.89,6.8,9.25,12.13,16.09,15.99,6.83,3.86,14.44,5.79,22.82,5.79,6.17,0,11.77-.76,16.79-2.27,5.01-1.51,9.36-3.35,13.02-5.51,3.67-2.16,7.26-4.72,10.79-7.7v19.63c-4.25,3.69-9.8,6.77-16.67,9.24-6.86,2.46-14.84,3.7-23.94,3.7-11.41,0-21.86-2.67-31.34-8.01-9.48-5.35-16.96-12.71-22.45-22.08-5.49-9.37-8.23-19.73-8.23-31.06,0-8.53,1.56-16.56,4.67-24.07,3.11-7.51,7.51-14.03,13.19-19.56,5.68-5.53,12.31-9.8,19.89-12.8,7.58-3,15.67-4.5,24.27-4.5,9.59,0,17.59,1.11,23.98,3.32,6.4,2.22,11.94,5.22,16.62,9v18.71c-5.18-4.48-11.26-8.01-18.23-10.57-6.98-2.57-14.43-3.85-22.37-3.85s-15.92,1.92-22.78,5.75c-6.87,3.84-12.24,9.14-16.13,15.91-3.89,6.77-5.83,14.31-5.83,22.63"></path><path class="cls-1" d="M543.95,122.54c0,8.58-1.56,16.59-4.67,24.02-3.11,7.43-7.52,13.95-13.19,19.56-5.68,5.62-12.35,9.98-20.01,13.09-7.66,3.1-15.74,4.66-24.23,4.66s-16.51-1.54-24.06-4.62c-7.55-3.08-14.22-7.46-20.01-13.17-5.79-5.7-10.22-12.28-13.31-19.77-3.09-7.48-4.63-15.4-4.63-23.77s1.54-16.3,4.63-23.78c3.09-7.48,7.54-14.09,13.36-19.81,5.81-5.73,12.43-10.1,19.85-13.13,7.41-3.02,15.48-4.54,24.19-4.54s16.83,1.53,24.35,4.58c7.52,3.05,14.13,7.39,19.81,13,5.68,5.62,10.09,12.15,13.23,19.6,3.14,7.45,4.71,15.48,4.71,24.07M481.85,166.77c8.38,0,16-1.93,22.86-5.79,6.86-3.86,12.24-9.18,16.13-15.99,3.89-6.79,5.83-14.3,5.83-22.5s-1.96-15.64-5.87-22.46c-3.92-6.83-9.3-12.14-16.17-15.95-6.86-3.8-14.46-5.71-22.78-5.71s-15.91,1.9-22.74,5.71c-6.84,3.8-12.21,9.12-16.13,15.95-3.92,6.83-5.87,14.31-5.87,22.46s1.94,15.7,5.83,22.5c3.89,6.8,9.25,12.13,16.08,15.99,6.83,3.86,14.44,5.79,22.82,5.79"></path><polygon class="cls-1" points="635.33 152.02 635.33 62.74 652.61 62.74 652.61 182.4 635.83 182.4 572.48 92.8 572.48 182.4 555.2 182.4 555.2 62.74 572.15 62.74 635.33 152.02"></polygon><path class="cls-1" d="M719.27,85.5c-4.58-4.32-10.67-6.48-18.28-6.48-4.96,0-8.83,1.33-11.62,4.01-2.78,2.67-4.17,5.98-4.17,9.92,0,2.71.58,5.04,1.73,7.01,1.16,1.98,3.02,3.79,5.58,5.43,2.56,1.65,5.99,3.31,10.3,4.98,22.38,8.53,33.57,21.37,33.57,38.48,0,7.08-1.6,13.21-4.8,18.39-3.2,5.19-7.58,9.14-13.15,11.87-5.57,2.73-11.69,4.1-18.36,4.1-9.15,0-16.88-1.79-23.19-5.35-6.31-3.57-11.2-7.92-14.68-13.04l12.49-11.74c2.48,3.83,5.8,6.97,9.96,9.4,4.16,2.43,9.08,3.64,14.76,3.64,3.47,0,6.72-.76,9.75-2.27,3.03-1.51,5.44-3.59,7.23-6.23,1.79-2.65,2.69-5.57,2.69-8.75,0-9.34-7.58-16.95-22.74-22.85-4.19-1.72-8.01-3.52-11.45-5.39-3.45-1.86-6.44-4.03-8.97-6.52-2.54-2.49-4.51-5.49-5.91-9.04-1.41-3.54-2.11-7.58-2.11-12.11,0-5.78,1.41-11.05,4.22-15.79,2.81-4.75,6.72-8.48,11.74-11.18,5.01-2.7,10.72-4.05,17.11-4.05s11.76.94,16.74,2.83c4.99,1.89,9.22,4.43,12.7,7.62l-11.17,13.13Z"></path><rect class="cls-1" x="747.55" y="62.74" width="17.28" height="119.66"></rect><path class="cls-1" d="M832.24,85.5c-4.57-4.32-10.67-6.48-18.28-6.48-4.96,0-8.83,1.33-11.62,4.01-2.78,2.67-4.17,5.98-4.17,9.92,0,2.71.58,5.04,1.73,7.01,1.16,1.98,3.02,3.79,5.58,5.43,2.56,1.65,5.99,3.31,10.3,4.98,22.38,8.53,33.57,21.37,33.57,38.48,0,7.08-1.6,13.21-4.79,18.39-3.2,5.19-7.58,9.14-13.15,11.87-5.57,2.73-11.69,4.1-18.36,4.1-9.15,0-16.88-1.79-23.19-5.35-6.31-3.57-11.2-7.92-14.68-13.04l12.49-11.74c2.48,3.83,5.8,6.97,9.96,9.4,4.16,2.43,9.08,3.64,14.76,3.64,3.47,0,6.72-.76,9.75-2.27,3.03-1.51,5.44-3.59,7.23-6.23,1.79-2.65,2.69-5.57,2.69-8.75,0-9.34-7.58-16.95-22.74-22.85-4.19-1.72-8.01-3.52-11.45-5.39-3.45-1.86-6.44-4.03-8.97-6.52-2.54-2.49-4.51-5.49-5.91-9.04-1.41-3.54-2.11-7.58-2.11-12.11,0-5.78,1.41-11.05,4.22-15.79,2.81-4.75,6.72-8.48,11.74-11.18,5.01-2.7,10.72-4.05,17.11-4.05s11.76.94,16.74,2.83c4.99,1.89,9.22,4.43,12.7,7.62l-11.17,13.13Z"></path><polygon class="cls-1" points="915.27 62.74 915.27 79.84 890.38 79.84 890.38 182.4 873.1 182.4 873.1 79.84 847.88 79.84 847.88 62.74 915.27 62.74"></polygon><polygon class="cls-1" points="981.93 79.84 941.17 79.84 941.17 113.21 981.93 113.21 981.93 130.31 941.17 130.31 941.17 165.31 981.93 165.31 981.93 182.4 923.89 182.4 923.89 62.74 981.93 62.74 981.93 79.84"></polygon><polygon class="cls-1" points="1094.73 102.12 1064.47 182.4 1056.78 182.4 1026.51 102.12 1005.51 182.4 987.73 182.4 1019.07 62.74 1029.74 62.74 1060.75 144.08 1091.34 62.74 1102.17 62.74 1133.52 182.4 1115.57 182.4 1094.73 102.12"></polygon></g></g></g></svg>